<?xml version="1.0" encoding="iso-8859-1"?>
<!-- Generator: Adobe Illustrator 16.0.0, SVG Export Plug-In . SVG Version: 6.00 Build 0)  -->
<!DOCTYPE svg PUBLIC "-//W3C//DTD SVG 1.1//EN" "http://www.w3.org/Graphics/SVG/1.1/DTD/svg11.dtd">
<svg version="1.1" xmlns="http://www.w3.org/2000/svg" xmlns:xlink="http://www.w3.org/1999/xlink" x="0px" y="0px" width="512px"
	 height="512px" viewBox="0 0 512 512" style="enable-background:new 0 0 512 512;" xml:space="preserve">
<g id="Layer_15">
	<g>
		<circle style="fill:#27BEC4;" cx="256" cy="256" r="256"/>
		<g>
			<g>
				<g>
					<g>
						<circle style="fill:#E1E1E2;" cx="167.518" cy="168.067" r="62.371"/>
					</g>
				</g>
				<g>
					<g>
						<polygon style="fill:#27BEC4;" points="184.058,151.526 150.984,184.607 106.882,140.5 139.955,107.424 						"/>
					</g>
				</g>
				<g>
					<circle style="fill:#E1E1E2;" cx="365.979" cy="366.526" r="31.185"/>
				</g>
				<g>
					<polygon style="fill:#E1E1E2;" points="189.571,146.014 145.469,190.116 343.927,388.576 388.036,344.476 					"/>
				</g>
				<g>
					<path style="fill:#27BEC4;" d="M378.911,353.596c7.138,7.144,7.138,18.722,0,25.859c-7.139,7.144-18.722,7.144-25.866,0
						c-7.134-7.138-7.134-18.716,0-25.859C360.189,346.455,371.772,346.455,378.911,353.596z"/>
				</g>
			</g>
			<g>
				
					<rect x="243.36" y="162.045" transform="matrix(0.7071 -0.7071 0.7071 0.7071 -110.8768 266.8873)" style="fill:#C4C3C4;" width="46.78" height="210.5"/>
			</g>
			<g>
				<g>
					
						<rect x="181.774" y="228.869" transform="matrix(0.7071 0.7071 -0.7071 0.7071 283.4979 -39.6148)" style="fill:#FFFFFF;" width="15.594" height="187.115"/>
				</g>
				<g>
					<polygon style="fill:#FFFFFF;" points="116.524,381.689 133.063,359.639 148.224,352.748 159.248,363.772 152.361,378.933 
						130.306,395.471 					"/>
				</g>
				<g>
					
						<rect x="290.69" y="119.955" transform="matrix(-0.7071 -0.7071 0.7071 -0.7071 415.0369 552.1566)" style="fill:#58595B;" width="62.375" height="140.328"/>
				</g>
				<g>
					
						<rect x="240.603" y="236.307" transform="matrix(-0.7071 -0.7071 0.7071 -0.7071 275.2873 610.0393)" style="fill:#0F0D10;" width="46.778" height="23.393"/>
				</g>
				<g>
					
						<rect x="230.05" y="242.963" transform="matrix(-0.7071 -0.7071 0.7071 -0.7071 268.6401 612.7966)" style="fill:#0F0D10;" width="62.372" height="15.595"/>
				</g>
				<g>
					<polygon style="fill:#0F0D10;" points="371.491,107.429 404.571,140.505 388.031,157.04 354.953,123.969 					"/>
				</g>
				<g>
					<polygon style="fill:#0F0D10;" points="360.464,107.429 404.571,151.526 393.542,162.558 349.438,118.451 					"/>
				</g>
				<g>
					<path style="fill:#0F0D10;" d="M393.542,140.505c3.043-3.045,7.982-3.045,11.029,0c3.04,3.044,3.04,7.981,0,11.021
						c-3.047,3.047-7.986,3.047-11.029,0C390.5,148.486,390.5,143.549,393.542,140.505z"/>
				</g>
				<g>
					<path style="fill:#0F0D10;" d="M360.464,107.429c3.05-3.049,7.982-3.049,11.027,0c3.047,3.042,3.045,7.982,0,11.022
						c-3.045,3.044-7.978,3.044-11.027,0.004C357.424,115.411,357.424,110.471,360.464,107.429z"/>
				</g>
			</g>
		</g>
	</g>
</g>
<g id="Layer_1">
</g>
</svg>
